<?xml version="1.0" encoding="utf-8"?>
<svg x="144.366pt" y="218.642pt" width="516.258pt" height="100pt" viewBox="144.366 218.642 516.258 100" xmlns="http://www.w3.org/2000/svg" xmlns:xlink="http://www.w3.org/1999/xlink">
  <clipPath id="2">
<style>
        @media (prefers-color-scheme: dark) {
                      path { fill: white; }
                              }
        }
</style>
<use xlink:href="#1"/>
    <path id="1" d="M144.366,218.642 C144.366,218.642,244.366,218.642,244.366,218.642 C244.366,218.642,244.366,318.642,244.366,318.642 C244.366,318.642,144.366,318.642,144.366,318.642 C144.366,318.642,144.366,218.642,144.366,218.642 z"/>
  </clipPath>
  <g id="3" style="clip-path:url(#2);">
    <title>Clipping Group</title>
    <defs>
      <title>Path 1</title>
      <g id="4">
        <defs>
          <path id="5" d="M235.335,255.013 C232.846,250.126,228.772,247.204,226.229,248.497 C223.932,249.661,223.702,253.872,225.507,258.274 C220.422,261.091,215.337,263.907,210.253,266.723 C208.713,264.665,206.721,262.97,204.409,261.794 C205.252,258.98,206.096,256.166,206.94,253.352 C208.285,253.079,209.63,252.805,210.975,252.532 C211.702,254.395,213.088,255.587,214.319,255.278 C215.499,254.981,216.143,253.395,215.979,251.509 C216,251.505,216.021,251.501,216.042,251.497 C215.938,250.99,215.833,250.484,215.729,249.977 C215.71,249.981,215.69,249.985,215.671,249.989 C215.007,247.868,213.506,246.45,212.178,246.782 C210.901,247.102,210.249,248.938,210.577,251.028 C209.531,251.242,208.486,251.455,207.44,251.669 C208.801,247.134,210.161,242.599,211.522,238.064 C215.659,238.915,219.354,237.849,220.081,235.415 C220.881,232.736,217.78,229.443,213.151,228.064 C208.526,226.681,204.128,227.732,203.327,230.412 C202.628,232.747,204.901,235.552,208.561,237.146 C206.211,244.979,203.861,252.813,201.51,260.646 C200.014,260.208,198.44,259.962,196.803,259.962 C194.971,259.962,193.214,260.263,191.565,260.806 C190.22,256.544,188.875,252.283,187.53,248.021 C189.639,246.974,190.917,245.228,190.487,243.673 C189.963,241.767,187.096,240.892,184.088,241.72 C181.081,242.548,179.069,244.767,179.592,246.673 C180.034,248.271,182.12,249.127,184.553,248.88 C185.937,253.268,187.321,257.656,188.706,262.044 C185.631,263.74,183.159,266.376,181.647,269.56 C179.226,268.322,176.806,267.084,174.385,265.845 C174.22,262.317,174.055,258.788,173.889,255.259 C176.338,254.962,178.182,253.673,178.182,252.126 C178.182,250.361,175.784,248.931,172.823,248.931 C169.866,248.931,167.467,250.361,167.467,252.126 C167.467,253.791,169.612,255.146,172.338,255.291 C172.491,258.537,172.643,261.783,172.795,265.029 C169.328,263.255,165.861,261.482,162.393,259.709 C164.179,254.822,163.624,250.177,160.979,249.021 C158.132,247.774,153.948,251.048,151.632,256.333 C149.315,261.618,149.745,266.915,152.593,268.165 C155.069,269.251,158.561,266.907,160.952,262.794 C167.466,266.127,173.981,269.461,180.495,272.794 C180.186,274.063,180.007,275.384,180.007,276.751 C180.007,279.06,180.475,281.259,181.315,283.259 C181.121,282.833,180.927,282.407,180.733,281.981 C175.685,284.289,170.637,286.596,165.588,288.903 C164.045,286.88,161.92,285.876,160.248,286.603 C158.092,287.54,157.514,290.985,158.955,294.294 C160.397,297.599,163.315,299.521,165.471,298.579 C167.463,297.712,168.084,294.704,167.034,291.642 C169.963,290.303,172.893,288.965,175.823,287.626 C175.823,289.558,175.823,291.491,175.823,293.423 C173.662,293.833,172.03,295.728,172.03,298.005 C172.03,300.587,174.119,302.677,176.702,302.677 C179.284,302.677,181.373,300.587,181.373,298.005 C181.373,295.724,179.741,293.833,177.58,293.423 C177.58,291.222,177.58,289.022,177.58,286.821 C179.06,286.146,180.539,285.47,182.018,284.794 C181.804,284.327,181.591,283.859,181.377,283.392 C183.42,288.126,187.58,291.716,192.666,293.009 C192.666,296.46,192.666,299.91,192.666,303.361 C190.549,303.697,189.002,304.681,189.002,305.861 C189.002,307.31,191.338,308.49,194.213,308.49 C197.092,308.49,199.424,307.31,199.424,305.861 C199.424,304.681,197.877,303.697,195.76,303.361 C195.76,300.071,195.76,296.78,195.76,293.49 C196.127,293.509,196.467,293.541,196.815,293.541 C199.42,293.541,201.877,292.931,204.08,291.869 C204.378,292.515,204.677,293.16,204.975,293.806 C203.713,294.662,202.885,296.107,202.885,297.748 C202.885,300.38,205.022,302.513,207.651,302.513 C210.283,302.513,212.416,300.38,212.416,297.748 C212.416,295.115,210.283,292.982,207.651,292.982 C207.213,292.982,206.795,293.06,206.389,293.173 C206.075,292.494,205.761,291.814,205.447,291.134 C207.971,289.615,210.069,287.462,211.502,284.88 C214.842,287.291,218.182,289.701,221.522,292.111 C220.417,294.572,220.405,296.888,221.667,297.709 C223.21,298.713,226.038,297.088,227.991,294.088 C229.94,291.088,230.276,287.841,228.733,286.838 C227.467,286.017,225.342,286.978,223.542,288.998 C221.465,287.499,219.388,286,217.311,284.502 C218.436,283.607,219.561,282.713,220.686,281.818 C221.432,282.408,222.366,282.779,223.393,282.779 C225.815,282.779,227.772,280.818,227.772,278.4 C227.772,275.982,225.811,274.021,223.393,274.021 C220.975,274.021,219.014,275.982,219.014,278.4 C219.014,279.228,219.256,279.998,219.659,280.658 C218.441,281.627,217.224,282.595,216.006,283.564 C214.987,282.828,213.967,282.093,212.948,281.357 C213.366,279.892,213.6,278.353,213.6,276.755 C213.6,274.103,212.967,271.603,211.87,269.373 C216.879,266.597,221.888,263.821,226.897,261.045 C229.397,265.103,232.944,267.38,235.237,266.213 C237.78,264.92,237.819,259.904,235.334,255.014 z"/>
        </defs>
        <use xlink:href="#5" style="fill:#000000;fill-opacity:1;fill-rule:evenodd;opacity:1;stroke:none;"/>
      </g>
    </defs>
    <use xlink:href="#4"/>
  </g>
  <clipPath id="7">
    <use xlink:href="#6"/>
    <path id="6" d="M144.366,218.642 C144.366,218.642,244.366,218.642,244.366,218.642 C244.366,218.642,244.366,318.642,244.366,318.642 C244.366,318.642,144.366,318.642,144.366,318.642 C144.366,318.642,144.366,218.642,144.366,218.642 z"/>
  </clipPath>
  <g id="8" style="clip-path:url(#7);">
    <defs>
      <g id="9">
        <defs>
          <path id="10" d="M235.335,255.013 C232.846,250.126,228.772,247.204,226.229,248.497 C223.932,249.661,223.702,253.872,225.507,258.274 C220.422,261.091,215.337,263.907,210.253,266.723 C208.713,264.665,206.721,262.97,204.409,261.794 C205.252,258.98,206.096,256.166,206.94,253.352 C208.285,253.079,209.63,252.805,210.975,252.532 C211.702,254.395,213.088,255.587,214.319,255.278 C215.499,254.981,216.143,253.395,215.979,251.509 C216,251.505,216.021,251.501,216.042,251.497 C215.938,250.99,215.833,250.484,215.729,249.977 C215.71,249.981,215.69,249.985,215.671,249.989 C215.007,247.868,213.506,246.45,212.178,246.782 C210.901,247.102,210.249,248.938,210.577,251.028 C209.531,251.242,208.486,251.455,207.44,251.669 C208.801,247.134,210.161,242.599,211.522,238.064 C215.659,238.915,219.354,237.849,220.081,235.415 C220.881,232.736,217.78,229.443,213.151,228.064 C208.526,226.681,204.128,227.732,203.327,230.412 C202.628,232.747,204.901,235.552,208.561,237.146 C206.211,244.979,203.861,252.813,201.51,260.646 C200.014,260.208,198.44,259.962,196.803,259.962 C194.971,259.962,193.214,260.263,191.565,260.806 C190.22,256.544,188.875,252.283,187.53,248.021 C189.639,246.974,190.917,245.228,190.487,243.673 C189.963,241.767,187.096,240.892,184.088,241.72 C181.081,242.548,179.069,244.767,179.592,246.673 C180.034,248.271,182.12,249.127,184.553,248.88 C185.937,253.268,187.321,257.656,188.706,262.044 C185.631,263.74,183.159,266.376,181.647,269.56 C179.226,268.322,176.806,267.084,174.385,265.845 C174.22,262.317,174.055,258.788,173.889,255.259 C176.338,254.962,178.182,253.673,178.182,252.126 C178.182,250.361,175.784,248.931,172.823,248.931 C169.866,248.931,167.467,250.361,167.467,252.126 C167.467,253.791,169.612,255.146,172.338,255.291 C172.491,258.537,172.643,261.783,172.795,265.029 C169.328,263.255,165.861,261.482,162.393,259.709 C164.179,254.822,163.624,250.177,160.979,249.021 C158.132,247.774,153.948,251.048,151.632,256.333 C149.315,261.618,149.745,266.915,152.593,268.165 C155.069,269.251,158.561,266.907,160.952,262.794 C167.466,266.127,173.981,269.461,180.495,272.794 C180.186,274.063,180.007,275.384,180.007,276.751 C180.007,279.06,180.475,281.259,181.315,283.259 C181.121,282.833,180.927,282.407,180.733,281.981 C175.685,284.289,170.637,286.596,165.588,288.903 C164.045,286.88,161.92,285.876,160.248,286.603 C158.092,287.54,157.514,290.985,158.955,294.294 C160.397,297.599,163.315,299.521,165.471,298.579 C167.463,297.712,168.084,294.704,167.034,291.642 C169.963,290.303,172.893,288.965,175.823,287.626 C175.823,289.558,175.823,291.491,175.823,293.423 C173.662,293.833,172.03,295.728,172.03,298.005 C172.03,300.587,174.119,302.677,176.702,302.677 C179.284,302.677,181.373,300.587,181.373,298.005 C181.373,295.724,179.741,293.833,177.58,293.423 C177.58,291.222,177.58,289.022,177.58,286.821 C179.06,286.146,180.539,285.47,182.018,284.794 C181.804,284.327,181.591,283.859,181.377,283.392 C183.42,288.126,187.58,291.716,192.666,293.009 C192.666,296.46,192.666,299.91,192.666,303.361 C190.549,303.697,189.002,304.681,189.002,305.861 C189.002,307.31,191.338,308.49,194.213,308.49 C197.092,308.49,199.424,307.31,199.424,305.861 C199.424,304.681,197.877,303.697,195.76,303.361 C195.76,300.071,195.76,296.78,195.76,293.49 C196.127,293.509,196.467,293.541,196.815,293.541 C199.42,293.541,201.877,292.931,204.08,291.869 C204.378,292.515,204.677,293.16,204.975,293.806 C203.713,294.662,202.885,296.107,202.885,297.748 C202.885,300.38,205.022,302.513,207.651,302.513 C210.283,302.513,212.416,300.38,212.416,297.748 C212.416,295.115,210.283,292.982,207.651,292.982 C207.213,292.982,206.795,293.06,206.389,293.173 C206.075,292.494,205.761,291.814,205.447,291.134 C207.971,289.615,210.069,287.462,211.502,284.88 C214.842,287.291,218.182,289.701,221.522,292.111 C220.417,294.572,220.405,296.888,221.667,297.709 C223.21,298.713,226.038,297.088,227.991,294.088 C229.94,291.088,230.276,287.841,228.733,286.838 C227.467,286.017,225.342,286.978,223.542,288.998 C221.465,287.499,219.388,286,217.311,284.502 C218.436,283.607,219.561,282.713,220.686,281.818 C221.432,282.408,222.366,282.779,223.393,282.779 C225.815,282.779,227.772,280.818,227.772,278.4 C227.772,275.982,225.811,274.021,223.393,274.021 C220.975,274.021,219.014,275.982,219.014,278.4 C219.014,279.228,219.256,279.998,219.659,280.658 C218.441,281.627,217.224,282.595,216.006,283.564 C214.987,282.828,213.967,282.093,212.948,281.357 C213.366,279.892,213.6,278.353,213.6,276.755 C213.6,274.103,212.967,271.603,211.87,269.373 C216.879,266.597,221.888,263.821,226.897,261.045 C229.397,265.103,232.944,267.38,235.237,266.213 C237.78,264.92,237.819,259.904,235.334,255.014 z"/>
        </defs>
        <use xlink:href="#10" style="fill:#aaaaaa;fill-opacity:1;fill-rule:nonzero;opacity:1;stroke:none;"/>
      </g>
    </defs>
    <use xlink:href="#9"/>
  </g>
  <defs>
    <title>Text</title>
    <g id="11">
      <defs>
        <path id="12" d="M277.456,260.058 C275.177,260.058,273.069,259.68,271.131,258.924 C269.193,258.168,267.513,257.109,266.09,255.747 C264.666,254.385,263.56,252.788,262.771,250.954 C261.981,249.121,261.586,247.116,261.586,244.939 C261.586,242.762,261.981,240.758,262.771,238.927 C263.56,237.096,264.668,235.498,266.094,234.132 C267.52,232.766,269.198,231.707,271.127,230.954 C273.056,230.202,275.162,229.826,277.445,229.826 C279.731,229.826,281.835,230.2,283.755,230.948 C285.676,231.696,287.347,232.749,288.768,234.107 C290.189,235.465,291.294,237.064,292.083,238.903 C292.873,240.743,293.267,242.756,293.267,244.943 C293.267,247.13,292.873,249.143,292.083,250.982 C291.294,252.822,290.189,254.42,288.768,255.777 C287.347,257.135,285.676,258.187,283.755,258.935 C281.835,259.684,279.735,260.058,277.456,260.058 z M277.445,255.29 C278.93,255.29,280.297,255.035,281.548,254.525 C282.8,254.015,283.89,253.294,284.819,252.363 C285.748,251.432,286.472,250.337,286.991,249.078 C287.51,247.819,287.769,246.437,287.769,244.93 C287.769,243.424,287.511,242.046,286.995,240.797 C286.479,239.548,285.755,238.457,284.825,237.525 C283.895,236.592,282.803,235.871,281.551,235.36 C280.299,234.849,278.93,234.593,277.445,234.593 C275.96,234.593,274.589,234.849,273.331,235.361 C272.073,235.872,270.977,236.595,270.042,237.529 C269.107,238.463,268.381,239.556,267.862,240.807 C267.344,242.058,267.084,243.432,267.084,244.93 C267.084,246.427,267.343,247.805,267.86,249.063 C268.378,250.322,269.103,251.421,270.036,252.361 C270.968,253.3,272.065,254.023,273.326,254.53 C274.587,255.037,275.96,255.29,277.445,255.29 z M299.073,259.642 C299.073,259.642,299.073,230.242,299.073,230.242 C299.073,230.242,311.143,230.242,311.143,230.242 C313.741,230.242,315.974,230.659,317.842,231.494 C319.71,232.329,321.147,233.531,322.153,235.099 C323.16,236.668,323.663,238.538,323.663,240.708 C323.663,242.854,323.16,244.703,322.153,246.256 C321.147,247.809,319.71,249.001,317.842,249.832 C315.974,250.664,313.741,251.079,311.143,251.079 C311.143,251.079,302.089,251.079,302.089,251.079 C302.089,251.079,304.524,248.615,304.524,248.615 C304.524,248.615,304.524,259.642,304.524,259.642 C304.524,259.642,299.073,259.642,299.073,259.642 z M318.28,259.642 C318.28,259.642,310.837,248.968,310.837,248.968 C310.837,248.968,316.693,248.968,316.693,248.968 C316.693,248.968,324.183,259.642,324.183,259.642 C324.183,259.642,318.28,259.642,318.28,259.642 z M304.524,249.195 C304.524,249.195,302.089,246.565,302.089,246.565 C302.089,246.565,310.915,246.565,310.915,246.565 C313.311,246.565,315.118,246.05,316.337,245.02 C317.556,243.989,318.166,242.552,318.166,240.708 C318.166,238.84,317.556,237.396,316.337,236.378 C315.118,235.36,313.311,234.85,310.915,234.85 C310.915,234.85,302.089,234.85,302.089,234.85 C302.089,234.85,304.524,232.185,304.524,232.185 C304.524,232.185,304.524,249.195,304.524,249.195 z M343.489,260.058 C341.206,260.058,339.1,259.687,337.171,258.945 C335.243,258.203,333.567,257.152,332.146,255.792 C330.725,254.432,329.621,252.833,328.833,250.993 C328.045,249.154,327.651,247.137,327.651,244.942 C327.651,242.747,328.045,240.729,328.833,238.89 C329.621,237.05,330.732,235.451,332.167,234.091 C333.602,232.731,335.286,231.681,337.219,230.939 C339.151,230.197,341.275,229.826,343.589,229.826 C346.062,229.826,348.299,230.23,350.301,231.04 C352.303,231.849,353.997,233.042,355.383,234.618 C355.383,234.618,351.93,237.974,351.93,237.974 C350.787,236.812,349.548,235.958,348.214,235.412 C346.88,234.866,345.421,234.593,343.836,234.593 C342.281,234.593,340.85,234.846,339.541,235.353 C338.232,235.86,337.099,236.575,336.142,237.499 C335.185,238.424,334.447,239.517,333.928,240.778 C333.409,242.04,333.149,243.428,333.149,244.942 C333.149,246.424,333.409,247.797,333.928,249.06 C334.447,250.324,335.185,251.424,336.142,252.36 C337.099,253.297,338.224,254.019,339.517,254.527 C340.81,255.036,342.232,255.29,343.784,255.29 C345.245,255.29,346.654,255.058,348.01,254.595 C349.367,254.132,350.659,253.353,351.888,252.258 C351.888,252.258,354.982,256.32,354.982,256.32 C353.458,257.548,351.682,258.478,349.655,259.11 C347.627,259.742,345.571,260.058,343.489,260.058 z M349.846,255.608 C349.846,255.608,349.846,244.619,349.846,244.619 C349.846,244.619,354.982,244.619,354.982,244.619 C354.982,244.619,354.982,256.32,354.982,256.32 C354.982,256.32,349.846,255.608,349.846,255.608 z M358.007,259.642 C358.007,259.642,371.224,230.242,371.224,230.242 C371.224,230.242,376.617,230.242,376.617,230.242 C376.617,230.242,389.871,259.642,389.871,259.642 C389.871,259.642,384.157,259.642,384.157,259.642 C384.157,259.642,372.8,233.154,372.8,233.154 C372.8,233.154,374.982,233.154,374.982,233.154 C374.982,233.154,363.625,259.642,363.625,259.642 C363.625,259.642,358.007,259.642,358.007,259.642 z M364.115,252.836 C364.115,252.836,365.574,248.548,365.574,248.548 C365.574,248.548,381.439,248.548,381.439,248.548 C381.439,248.548,382.935,252.836,382.935,252.836 C382.935,252.836,364.115,252.836,364.115,252.836 z M393.624,259.642 C393.624,259.642,393.624,230.242,393.624,230.242 C393.624,230.242,398.116,230.242,398.116,230.242 C398.116,230.242,416.542,252.887,416.542,252.887 C416.542,252.887,414.298,252.887,414.298,252.887 C414.298,252.887,414.298,230.242,414.298,230.242 C414.298,230.242,419.716,230.242,419.716,230.242 C419.716,230.242,419.716,259.642,419.716,259.642 C419.716,259.642,415.224,259.642,415.224,259.642 C415.224,259.642,396.799,236.996,396.799,236.996 C396.799,236.996,399.042,236.996,399.042,236.996 C399.042,236.996,399.042,259.642,399.042,259.642 C399.042,259.642,393.624,259.642,393.624,259.642 z M427.648,259.642 C427.648,259.642,427.648,230.242,427.648,230.242 C427.648,230.242,433.099,230.242,433.099,230.242 C433.099,230.242,433.099,259.642,433.099,259.642 C433.099,259.642,427.648,259.642,427.648,259.642 z M438.775,259.642 C438.775,259.642,438.775,256.002,438.775,256.002 C438.775,256.002,457.788,232.802,457.788,232.802 C457.788,232.802,458.421,234.856,458.421,234.856 C458.421,234.856,439.085,234.856,439.085,234.856 C439.085,234.856,439.085,230.242,439.085,230.242 C439.085,230.242,463.317,230.242,463.317,230.242 C463.317,230.242,463.317,233.881,463.317,233.881 C463.317,233.881,444.341,257.082,444.341,257.082 C444.341,257.082,443.671,255.027,443.671,255.027 C443.671,255.027,463.88,255.027,463.88,255.027 C463.88,255.027,463.88,259.642,463.88,259.642 C463.88,259.642,438.775,259.642,438.775,259.642 z M464.719,259.642 C464.719,259.642,477.937,230.242,477.937,230.242 C477.937,230.242,483.329,230.242,483.329,230.242 C483.329,230.242,496.584,259.642,496.584,259.642 C496.584,259.642,490.87,259.642,490.87,259.642 C490.87,259.642,479.513,233.154,479.513,233.154 C479.513,233.154,481.695,233.154,481.695,233.154 C481.695,233.154,470.338,259.642,470.338,259.642 C470.338,259.642,464.719,259.642,464.719,259.642 z M470.827,252.836 C470.827,252.836,472.287,248.548,472.287,248.548 C472.287,248.548,488.152,248.548,488.152,248.548 C488.152,248.548,489.647,252.836,489.647,252.836 C489.647,252.836,470.827,252.836,470.827,252.836 z M506.282,259.642 C506.282,259.642,506.282,234.856,506.282,234.856 C506.282,234.856,496.539,234.856,496.539,234.856 C496.539,234.856,496.539,230.242,496.539,230.242 C496.539,230.242,521.477,230.242,521.477,230.242 C521.477,230.242,521.477,234.856,521.477,234.856 C521.477,234.856,511.733,234.856,511.733,234.856 C511.733,234.856,511.733,259.642,511.733,259.642 C511.733,259.642,506.282,259.642,506.282,259.642 z M525.611,259.642 C525.611,259.642,525.611,230.242,525.611,230.242 C525.611,230.242,531.062,230.242,531.062,230.242 C531.062,230.242,531.062,259.642,531.062,259.642 C531.062,259.642,525.611,259.642,525.611,259.642 z M552.737,260.058 C550.458,260.058,548.35,259.68,546.412,258.924 C544.474,258.168,542.794,257.109,541.371,255.747 C539.947,254.385,538.841,252.788,538.052,250.954 C537.262,249.121,536.867,247.116,536.867,244.939 C536.867,242.762,537.262,240.758,538.052,238.927 C538.841,237.096,539.949,235.498,541.375,234.132 C542.801,232.766,544.479,231.707,546.408,230.954 C548.337,230.202,550.443,229.826,552.726,229.826 C555.012,229.826,557.116,230.2,559.036,230.948 C560.957,231.696,562.628,232.749,564.049,234.107 C565.47,235.465,566.575,237.064,567.364,238.903 C568.154,240.743,568.549,242.756,568.549,244.943 C568.549,247.13,568.154,249.143,567.364,250.982 C566.575,252.822,565.47,254.42,564.049,255.777 C562.628,257.135,560.957,258.187,559.036,258.935 C557.116,259.684,555.016,260.058,552.737,260.058 z M552.726,255.29 C554.211,255.29,555.578,255.035,556.829,254.525 C558.081,254.015,559.171,253.294,560.1,252.363 C561.029,251.432,561.753,250.337,562.272,249.078 C562.791,247.819,563.05,246.437,563.05,244.93 C563.05,243.424,562.792,242.046,562.276,240.797 C561.76,239.548,561.036,238.457,560.106,237.525 C559.176,236.592,558.084,235.871,556.832,235.36 C555.58,234.849,554.211,234.593,552.726,234.593 C551.241,234.593,549.87,234.849,548.612,235.361 C547.354,235.872,546.258,236.595,545.323,237.529 C544.388,238.463,543.661,239.556,543.143,240.807 C542.625,242.058,542.365,243.432,542.365,244.93 C542.365,246.427,542.624,247.805,543.141,249.063 C543.659,250.322,544.384,251.421,545.317,252.361 C546.249,253.3,547.346,254.023,548.607,254.53 C549.868,255.037,551.241,255.29,552.726,255.29 z M574.354,259.642 C574.354,259.642,574.354,230.242,574.354,230.242 C574.354,230.242,578.846,230.242,578.846,230.242 C578.846,230.242,597.272,252.887,597.272,252.887 C597.272,252.887,595.027,252.887,595.027,252.887 C595.027,252.887,595.027,230.242,595.027,230.242 C595.027,230.242,600.445,230.242,600.445,230.242 C600.445,230.242,600.445,259.642,600.445,259.642 C600.445,259.642,595.954,259.642,595.954,259.642 C595.954,259.642,577.529,236.996,577.529,236.996 C577.529,236.996,579.772,236.996,579.772,236.996 C579.772,236.996,579.772,259.642,579.772,259.642 C579.772,259.642,574.354,259.642,574.354,259.642 z M604.199,259.642 C604.199,259.642,617.417,230.242,617.417,230.242 C617.417,230.242,622.809,230.242,622.809,230.242 C622.809,230.242,636.063,259.642,636.063,259.642 C636.063,259.642,630.35,259.642,630.35,259.642 C630.35,259.642,618.992,233.154,618.992,233.154 C618.992,233.154,621.174,233.154,621.174,233.154 C621.174,233.154,609.817,259.642,609.817,259.642 C609.817,259.642,604.199,259.642,604.199,259.642 z M610.307,252.836 C610.307,252.836,611.766,248.548,611.766,248.548 C611.766,248.548,627.631,248.548,627.631,248.548 C627.631,248.548,629.127,252.836,629.127,252.836 C629.127,252.836,610.307,252.836,610.307,252.836 z M639.817,259.642 C639.817,259.642,639.817,230.242,639.817,230.242 C639.817,230.242,645.268,230.242,645.268,230.242 C645.268,230.242,645.268,255.027,645.268,255.027 C645.268,255.027,660.624,255.027,660.624,255.027 C660.624,255.027,660.624,259.642,660.624,259.642 C660.624,259.642,639.817,259.642,639.817,259.642 z"/>
      </defs>
      <use xlink:href="#12" style="fill:#000000;fill-opacity:1;fill-rule:nonzero;opacity:1;stroke:none;"/>
    </g>
  </defs>
  <use xlink:href="#11"/>
  <defs>
    <title>Text</title>
    <g id="13">
      <defs>
        <path id="14" d="M329.51,309.342 C329.51,309.342,329.51,279.942,329.51,279.942 C329.51,279.942,334.001,279.942,334.001,279.942 C334.001,279.942,346.858,301.403,346.858,301.403 C346.858,301.403,344.476,301.403,344.476,301.403 C344.476,301.403,357.143,279.942,357.143,279.942 C357.143,279.942,361.634,279.942,361.634,279.942 C361.634,279.942,361.682,309.342,361.682,309.342 C361.682,309.342,356.492,309.342,356.492,309.342 C356.492,309.342,356.444,288.064,356.444,288.064 C356.444,288.064,357.543,288.064,357.543,288.064 C357.543,288.064,346.805,306.001,346.805,306.001 C346.805,306.001,344.339,306.001,344.339,306.001 C344.339,306.001,333.448,288.064,333.448,288.064 C333.448,288.064,334.7,288.064,334.7,288.064 C334.7,288.064,334.7,309.342,334.7,309.342 C334.7,309.342,329.51,309.342,329.51,309.342 z M379.009,309.342 C379.009,309.342,379.009,297.727,379.009,297.727 C379.009,297.727,380.253,301.053,380.253,301.053 C380.253,301.053,367.482,279.942,367.482,279.942 C367.482,279.942,373.296,279.942,373.296,279.942 C373.296,279.942,383.569,296.954,383.569,296.954 C383.569,296.954,380.295,296.954,380.295,296.954 C380.295,296.954,390.616,279.942,390.616,279.942 C390.616,279.942,395.986,279.942,395.986,279.942 C395.986,279.942,383.226,301.053,383.226,301.053 C383.226,301.053,384.46,297.727,384.46,297.727 C384.46,297.727,384.46,309.342,384.46,309.342 C384.46,309.342,379.009,309.342,379.009,309.342 z M414.122,309.758 C411.867,309.758,409.782,309.387,407.865,308.645 C405.948,307.903,404.285,306.852,402.876,305.492 C401.467,304.132,400.369,302.533,399.581,300.693 C398.794,298.854,398.4,296.837,398.4,294.642 C398.4,292.447,398.794,290.429,399.581,288.59 C400.369,286.751,401.474,285.151,402.895,283.791 C404.316,282.431,405.985,281.381,407.902,280.639 C409.818,279.897,411.904,279.526,414.158,279.526 C416.555,279.526,418.75,279.938,420.745,280.763 C422.739,281.588,424.415,282.807,425.774,284.419 C425.774,284.419,422.258,287.773,422.258,287.773 C421.195,286.608,420.005,285.737,418.686,285.159 C417.368,284.582,415.942,284.293,414.406,284.293 C412.883,284.293,411.481,284.547,410.202,285.053 C408.924,285.56,407.813,286.275,406.869,287.199 C405.926,288.124,405.195,289.217,404.676,290.481 C404.157,291.744,403.898,293.131,403.898,294.642 C403.898,296.152,404.157,297.539,404.676,298.802 C405.195,300.066,405.926,301.16,406.869,302.084 C407.813,303.008,408.924,303.723,410.202,304.23 C411.481,304.737,412.883,304.99,414.406,304.99 C415.942,304.99,417.368,304.701,418.686,304.124 C420.005,303.546,421.195,302.663,422.258,301.473 C422.258,301.473,425.774,304.829,425.774,304.829 C424.415,306.436,422.739,307.66,420.745,308.499 C418.75,309.338,416.543,309.758,414.122,309.758 z M446.392,309.758 C444.113,309.758,442.005,309.38,440.067,308.624 C438.13,307.868,436.449,306.809,435.026,305.447 C433.603,304.085,432.497,302.488,431.707,300.655 C430.918,298.821,430.523,296.816,430.523,294.639 C430.523,292.462,430.918,290.458,431.707,288.627 C432.497,286.796,433.604,285.198,435.031,283.832 C436.457,282.466,438.135,281.407,440.064,280.654 C441.993,279.902,444.099,279.526,446.382,279.526 C448.668,279.526,450.771,279.9,452.692,280.648 C454.612,281.396,456.283,282.449,457.704,283.807 C459.125,285.165,460.23,286.764,461.02,288.603 C461.809,290.443,462.204,292.456,462.204,294.643 C462.204,296.83,461.809,298.843,461.02,300.682 C460.23,302.522,459.125,304.12,457.704,305.477 C456.283,306.835,454.612,307.887,452.692,308.635 C450.771,309.384,448.671,309.758,446.392,309.758 z M446.381,304.99 C447.866,304.99,449.234,304.735,450.485,304.225 C451.736,303.715,452.826,302.994,453.756,302.063 C454.685,301.132,455.409,300.037,455.928,298.778 C456.447,297.519,456.706,296.137,456.706,294.63 C456.706,293.124,456.448,291.746,455.932,290.497 C455.415,289.248,454.692,288.157,453.762,287.225 C452.831,286.292,451.74,285.571,450.488,285.06 C449.235,284.549,447.867,284.293,446.382,284.293 C444.897,284.293,443.526,284.549,442.268,285.061 C441.009,285.572,439.913,286.295,438.978,287.229 C438.044,288.163,437.317,289.256,436.799,290.507 C436.28,291.758,436.021,293.132,436.021,294.63 C436.021,296.127,436.28,297.505,436.797,298.764 C437.314,300.022,438.039,301.121,438.972,302.061 C439.905,303,441.002,303.723,442.263,304.23 C443.523,304.737,444.896,304.99,446.381,304.99 z M470.21,309.342 C470.21,309.342,470.21,279.942,470.21,279.942 C470.21,279.942,475.661,279.942,475.661,279.942 C475.661,279.942,475.661,304.728,475.661,304.728 C475.661,304.728,491.017,304.728,491.017,304.728 C491.017,304.728,491.017,309.342,491.017,309.342 C491.017,309.342,470.21,309.342,470.21,309.342 z M510.769,309.758 C508.49,309.758,506.381,309.38,504.444,308.624 C502.506,307.868,500.826,306.809,499.402,305.447 C497.979,304.085,496.873,302.488,496.083,300.655 C495.294,298.821,494.899,296.816,494.899,294.639 C494.899,292.462,495.294,290.458,496.083,288.627 C496.873,286.796,497.981,285.198,499.407,283.832 C500.833,282.466,502.511,281.407,504.44,280.654 C506.369,279.902,508.475,279.526,510.758,279.526 C513.044,279.526,515.147,279.9,517.068,280.648 C518.989,281.396,520.66,282.449,522.081,283.807 C523.502,285.165,524.607,286.764,525.396,288.603 C526.186,290.443,526.58,292.456,526.58,294.643 C526.58,296.83,526.186,298.843,525.396,300.682 C524.607,302.522,523.502,304.12,522.081,305.477 C520.66,306.835,518.989,307.887,517.068,308.635 C515.147,309.384,513.048,309.758,510.769,309.758 z M510.758,304.99 C512.242,304.99,513.61,304.735,514.861,304.225 C516.112,303.715,517.203,302.994,518.132,302.063 C519.061,301.132,519.785,300.037,520.304,298.778 C520.823,297.519,521.082,296.137,521.082,294.63 C521.082,293.124,520.824,291.746,520.308,290.497 C519.792,289.248,519.068,288.157,518.138,287.225 C517.208,286.292,516.116,285.571,514.864,285.06 C513.612,284.549,512.243,284.293,510.758,284.293 C509.273,284.293,507.902,284.549,506.644,285.061 C505.386,285.572,504.289,286.295,503.355,287.229 C502.42,288.163,501.693,289.256,501.175,290.507 C500.657,291.758,500.397,293.132,500.397,294.63 C500.397,296.127,500.656,297.505,501.173,298.764 C501.691,300.022,502.416,301.121,503.349,302.061 C504.281,303,505.378,303.723,506.639,304.23 C507.9,304.737,509.273,304.99,510.758,304.99 z M548.297,309.758 C546.014,309.758,543.908,309.387,541.98,308.645 C540.051,307.903,538.376,306.852,536.954,305.492 C535.533,304.132,534.429,302.533,533.641,300.693 C532.853,298.854,532.459,296.837,532.459,294.642 C532.459,292.447,532.853,290.429,533.641,288.59 C534.429,286.751,535.54,285.151,536.975,283.791 C538.411,282.431,540.094,281.381,542.027,280.639 C543.959,279.897,546.083,279.526,548.397,279.526 C550.87,279.526,553.108,279.93,555.109,280.74 C557.111,281.549,558.805,282.742,560.191,284.318 C560.191,284.318,556.738,287.674,556.738,287.674 C555.595,286.512,554.356,285.658,553.022,285.112 C551.688,284.566,550.229,284.293,548.644,284.293 C547.09,284.293,545.658,284.547,544.349,285.053 C543.04,285.56,541.907,286.275,540.95,287.199 C539.993,288.124,539.255,289.217,538.736,290.478 C538.217,291.74,537.957,293.128,537.957,294.642 C537.957,296.124,538.217,297.497,538.736,298.76 C539.255,300.024,539.993,301.124,540.95,302.06 C541.907,302.997,543.032,303.719,544.325,304.227 C545.618,304.736,547.04,304.99,548.592,304.99 C550.053,304.99,551.462,304.758,552.818,304.295 C554.175,303.832,555.467,303.053,556.696,301.958 C556.696,301.958,559.79,306.02,559.79,306.02 C558.266,307.248,556.491,308.178,554.463,308.81 C552.435,309.442,550.38,309.758,548.297,309.758 z M554.654,305.308 C554.654,305.308,554.654,294.319,554.654,294.319 C554.654,294.319,559.79,294.319,559.79,294.319 C559.79,294.319,559.79,306.02,559.79,306.02 C559.79,306.02,554.654,305.308,554.654,305.308 z M576.388,309.342 C576.388,309.342,576.388,297.727,576.388,297.727 C576.388,297.727,577.633,301.053,577.633,301.053 C577.633,301.053,564.861,279.942,564.861,279.942 C564.861,279.942,570.675,279.942,570.675,279.942 C570.675,279.942,580.949,296.954,580.949,296.954 C580.949,296.954,577.675,296.954,577.675,296.954 C577.675,296.954,587.995,279.942,587.995,279.942 C587.995,279.942,593.366,279.942,593.366,279.942 C593.366,279.942,580.605,301.053,580.605,301.053 C580.605,301.053,581.839,297.727,581.839,297.727 C581.839,297.727,581.839,309.342,581.839,309.342 C581.839,309.342,576.388,309.342,576.388,309.342 z"/>
      </defs>
      <use xlink:href="#14" style="fill:#000000;fill-opacity:0.50851;fill-rule:nonzero;opacity:1;stroke:none;"/>
    </g>
  </defs>
  <use xlink:href="#13"/>
  <defs>
    <title>Path</title>
    <g id="15">
      <defs>
        <path id="16" d="M310.631,268.307 C310.631,268.307,610.112,267.638,610.112,267.638"/>
      </defs>
      <use xlink:href="#16" style="fill:none;opacity:1;stroke:#000000;stroke-linecap:butt;stroke-linejoin:round;stroke-miterlimit:10;stroke-opacity:1;stroke-width:0.5;"/>
    </g>
  </defs>
  <use xlink:href="#15"/>
</svg>
